<svg width="208" height="297" viewBox="0 0 208 297" fill="none" xmlns="http://www.w3.org/2000/svg">
<mask id="path-1-inside-1_415_4" fill="white">
<path fill-rule="evenodd" clip-rule="evenodd" d="M207.846 128L103.923 0.5L0 128H65V297H144V128H207.846Z"/>
</mask>
<path d="M103.923 0.5L107.799 -2.65899L103.923 -7.41392L100.047 -2.65899L103.923 0.5ZM207.846 128V133H218.372L211.722 124.841L207.846 128ZM0 128L-3.87567 124.841L-10.5259 133H0V128ZM65 128H70V123H65V128ZM65 297H60V302H65V297ZM144 297V302H149V297H144ZM144 128V123H139V128H144ZM100.047 3.65899L203.97 131.159L211.722 124.841L107.799 -2.65899L100.047 3.65899ZM3.87567 131.159L107.799 3.65899L100.047 -2.65899L-3.87567 124.841L3.87567 131.159ZM65 123H0V133H65V123ZM70 297V128H60V297H70ZM144 292H65V302H144V292ZM139 128V297H149V128H139ZM207.846 123H144V133H207.846V123Z" fill="white" mask="url(#path-1-inside-1_415_4)"/>
</svg>
